<svg viewBox="-235.01542760415344 -106 1149.2004496305856 200" xmlns="http://www.w3.org/2000/svg" xmlns:xlink="http://www.w3.org/1999/xlink" version="1.1" class="jsx-2263963463 artboard-inner" style="width: 124px; height: 21.5802px; max-height: 100%;"><g transform="translate(-3.964757709251102 39.193832599118956) scale(1.5296133137542829)" fill="#FFFFFF"><g id="line1"><path d="M2.592-25.128C2.592-10.728 14.112 0.648 28.440 0.648C38.880 0.648 46.296-4.032 46.296-4.032C46.584-4.248 46.872-4.824 46.872-5.184L46.800-24.552C46.800-25.272 46.224-25.920 45.504-25.920L31.032-25.920C30.240-25.920 29.664-25.344 29.664-24.552L29.664-17.424C29.664-16.704 30.240-16.128 31.032-16.128L35.568-16.128L35.568-11.952C33.408-11.088 31.248-10.800 29.160-10.800C21.312-10.800 14.904-17.280 14.904-25.128C14.904-33.048 21.240-39.672 29.088-39.672C32.616-39.672 35.784-38.736 38.520-36.216C39.096-35.784 39.888-35.784 40.464-36.288L46.152-42.336C46.728-42.912 46.656-43.776 46.008-44.280C41.112-48.528 34.488-51.048 28.440-51.048C14.112-51.048 2.592-39.528 2.592-25.128Z"></path><path d="M53.525-14.472C53.525-6.192 60.293 0.720 68.501 0.720C76.709 0.720 83.477-6.192 83.477-14.472C83.477-22.608 76.709-29.520 68.501-29.520C60.293-29.520 53.525-22.608 53.525-14.472ZM62.813-14.472C62.813-17.640 65.333-20.232 68.501-20.232C71.669-20.232 74.189-17.640 74.189-14.472C74.189-11.232 71.669-8.568 68.501-8.568C65.333-8.568 62.813-11.232 62.813-14.472Z"></path><path d="M91.138-1.368C91.138-0.648 91.786 0 92.506 0L95.890 0C96.610 0 97.114-0.648 97.402-1.440L98.266-3.816C98.266-3.816 101.578 0.720 107.914 0.720C116.050 0.720 122.170-6.120 122.170-14.400C122.170-24.552 115.546-29.520 107.842-29.520C105.394-29.520 102.730-28.656 101.866-28.152L101.866-49.032C101.866-49.752 101.218-50.400 100.498-50.400L92.506-50.400C91.786-50.400 91.138-49.752 91.138-49.032ZM100.714-14.472C100.714-17.712 103.162-20.232 106.474-20.232C109.786-20.232 112.306-17.712 112.306-14.472C112.306-11.160 109.786-8.568 106.474-8.568C103.162-8.568 100.714-11.160 100.714-14.472Z"></path><path d="M129.974-1.368C129.974-0.648 130.622 0 131.342 0L139.262 0C139.982 0 140.630-0.648 140.630-1.368L140.630-49.032C140.630-49.752 139.982-50.400 139.262-50.400L131.342-50.400C130.622-50.400 129.974-49.752 129.974-49.032Z"></path><path d="M148.363-14.400C148.363-6.120 154.843 0.720 163.411 0.720C167.947 0.720 171.547-0.864 174.067-3.384C174.715-4.032 174.571-4.896 174.139-5.472L170.539-9.792C170.107-10.296 169.387-10.296 168.739-9.792C167.587-8.928 165.499-8.064 163.699-8.064C159.955-8.064 158.371-10.872 158.155-12.816L175.435-12.816C176.083-12.816 176.731-13.320 176.803-14.040C176.875-14.544 176.947-15.480 176.947-15.984C176.947-23.904 170.611-29.520 163.267-29.520C154.771-29.520 148.363-22.536 148.363-14.400ZM159.091-18.432C159.379-20.304 161.035-21.816 162.979-21.816C164.851-21.816 166.651-20.304 166.795-18.432Z"></path><path d="M185.400-9.288C185.400-2.736 188.568 0.720 194.040 0.720C197.640 0.720 202.752-0.864 202.752-0.864C203.472-1.080 203.832-1.872 203.688-2.520L202.104-8.496C201.888-9.288 201.240-9.576 200.520-9.432C199.800-9.288 198.720-8.928 197.712-8.928C196.848-8.928 195.768-9.072 195.768-10.656L195.768-19.656L201.096-19.656C201.888-19.656 202.464-20.304 202.464-21.024L202.464-27.432C202.464-28.224 201.888-28.800 201.096-28.800L195.768-28.800L195.768-36.792C195.768-37.512 195.192-38.160 194.472-38.160L186.768-38.160C186.048-38.160 185.400-37.512 185.400-36.792L185.400-28.800L183.528-28.800C182.808-28.800 182.232-28.224 182.232-27.432L182.232-21.024C182.232-20.304 182.808-19.656 183.528-19.656L185.400-19.656Z"></path><path d="M209.909-36.072L213.869-36.072C214.373-36.072 215.021-36.576 215.165-37.152L218.621-48.600C218.909-49.608 218.261-50.400 217.325-50.400L209.909-50.400C209.189-50.400 208.541-49.752 208.541-49.032L208.541-37.440C208.541-36.720 209.189-36.072 209.909-36.072Z"></path><path d="M223.042-25.128C223.042-10.728 234.490 0.720 248.890 0.720C263.290 0.720 274.810-10.728 274.810-25.128C274.810-39.528 263.290-51.120 248.890-51.120C234.490-51.120 223.042-39.528 223.042-25.128ZM234.562-25.128C234.562-33.048 241.042-39.600 248.890-39.600C256.810-39.600 263.290-33.048 263.290-25.128C263.290-17.280 256.810-10.800 248.890-10.800C241.042-10.800 234.562-17.280 234.562-25.128Z"></path><path d="M282.398-36.072L286.358-36.072C286.862-36.072 287.510-36.576 287.654-37.152L291.110-48.600C291.398-49.608 290.750-50.400 289.814-50.400L282.398-50.400C281.678-50.400 281.030-49.752 281.030-49.032L281.030-37.440C281.030-36.720 281.678-36.072 282.398-36.072Z"></path><path d="M295.531-25.128C295.531-10.728 306.979 0.720 321.379 0.720C321.883 0.720 322.747 0.720 323.611 0.648L331.243 13.536C331.459 13.896 331.819 14.256 332.395 14.256L342.115 14.256C343.267 14.256 343.843 13.104 343.267 12.096L333.979-2.448C341.899-7.272 347.299-15.768 347.299-25.128C347.299-39.528 335.779-51.120 321.379-51.120C306.979-51.120 295.531-39.528 295.531-25.128ZM307.051-25.128C307.051-33.048 313.531-39.600 321.379-39.600C329.299-39.600 335.779-33.048 335.779-25.128C335.779-17.280 329.299-10.800 321.379-10.800C313.531-10.800 307.051-17.280 307.051-25.128Z"></path><path d="M354.312-14.400C354.312-6.192 358.416 0.720 366.984 0.720C372.528 0.720 374.832-1.872 376.704-3.672L377.784-1.008C378.000-0.504 378.504 0 379.152 0L382.536 0C383.256 0 383.904-0.648 383.904-1.368L383.904-27.432C383.904-28.224 383.256-28.800 382.536-28.800L375.192-28.800C374.472-28.800 373.680-28.584 373.680-27.432L373.680-13.680C373.680-11.232 372.168-8.568 369.360-8.568C366.408-8.568 364.752-11.160 364.752-14.112L364.752-27.432C364.752-28.224 364.104-28.800 363.384-28.800L355.680-28.800C354.960-28.800 354.312-28.224 354.312-27.432Z"></path><path d="M391.637-14.400C391.637-6.120 398.117 0.720 406.685 0.720C411.221 0.720 414.821-0.864 417.341-3.384C417.989-4.032 417.845-4.896 417.413-5.472L413.813-9.792C413.381-10.296 412.661-10.296 412.013-9.792C410.861-8.928 408.773-8.064 406.973-8.064C403.229-8.064 401.645-10.872 401.429-12.816L418.709-12.816C419.357-12.816 420.005-13.320 420.077-14.040C420.149-14.544 420.221-15.480 420.221-15.984C420.221-23.904 413.885-29.520 406.541-29.520C398.045-29.520 391.637-22.536 391.637-14.400ZM402.365-18.432C402.653-20.304 404.309-21.816 406.253-21.816C408.125-21.816 409.925-20.304 410.069-18.432Z"></path><path d="M426.514-1.656C427.954-0.504 431.554 0.720 436.306 0.720C444.442 0.720 448.474-3.384 448.474-8.424C448.474-14.184 444.442-16.488 438.610-18.504C436.162-19.368 435.370-20.088 435.370-20.808C435.370-21.600 436.018-21.816 436.954-21.816C439.762-21.816 443.074-20.160 443.074-20.160C443.650-19.944 444.370-20.160 444.586-20.592L447.250-25.488C447.682-26.208 447.178-26.856 446.530-27.288C444.946-28.296 441.490-29.520 436.954-29.520C429.178-29.520 425.722-25.632 425.722-20.808C425.722-16.344 428.170-13.104 433.786-11.160C437.458-9.864 437.890-8.856 437.890-8.136C437.890-7.272 437.242-6.840 436.522-6.840C433.426-6.840 430.042-8.712 430.042-8.712C429.466-9.000 428.746-8.568 428.530-8.136L426.010-3.168C425.650-2.520 426.010-2.088 426.514-1.656Z"></path><path d="M457.502-9.288C457.502-2.736 460.670 0.720 466.142 0.720C469.742 0.720 474.854-0.864 474.854-0.864C475.574-1.080 475.934-1.872 475.790-2.520L474.206-8.496C473.990-9.288 473.342-9.576 472.622-9.432C471.902-9.288 470.822-8.928 469.814-8.928C468.950-8.928 467.870-9.072 467.870-10.656L467.870-19.656L473.198-19.656C473.990-19.656 474.566-20.304 474.566-21.024L474.566-27.432C474.566-28.224 473.990-28.800 473.198-28.800L467.870-28.800L467.870-36.792C467.870-37.512 467.294-38.160 466.574-38.160L458.870-38.160C458.150-38.160 457.502-37.512 457.502-36.792L457.502-28.800L455.630-28.800C454.910-28.800 454.334-28.224 454.334-27.432L454.334-21.024C454.334-20.304 454.910-19.656 455.630-19.656L457.502-19.656Z"></path><path d="M488.491-37.512C491.659-37.512 494.251-40.032 494.251-43.200C494.251-46.368 491.659-48.960 488.491-48.960C485.323-48.960 482.803-46.368 482.803-43.200C482.803-40.032 485.323-37.512 488.491-37.512ZM483.235-1.368C483.235-0.648 483.883 0 484.603 0L492.523 0C493.243 0 493.891-0.648 493.891-1.368L493.891-27.432C493.891-28.224 493.243-28.800 492.523-28.800L484.603-28.800C483.883-28.800 483.235-28.224 483.235-27.432Z"></path><path d="M501.552-14.472C501.552-6.192 508.320 0.720 516.528 0.720C524.736 0.720 531.504-6.192 531.504-14.472C531.504-22.608 524.736-29.520 516.528-29.520C508.320-29.520 501.552-22.608 501.552-14.472ZM510.840-14.472C510.840-17.640 513.360-20.232 516.528-20.232C519.696-20.232 522.216-17.640 522.216-14.472C522.216-11.232 519.696-8.568 516.528-8.568C513.360-8.568 510.840-11.232 510.840-14.472Z"></path><path d="M539.165-1.368C539.165-0.648 539.813 0 540.533 0L548.093 0C549.101 0 549.389-0.720 549.389-1.368L549.389-15.192C549.389-18.144 551.981-20.232 554.861-20.232C558.101-20.232 559.757-17.712 559.757-14.832L559.757-1.368C559.757-0.648 560.333 0 561.125 0L568.829 0C569.549 0 570.197-0.648 570.197-1.368L570.197-14.472C570.197-22.680 565.445-29.520 556.517-29.520C551.261-29.520 547.949-26.784 546.365-25.056L545.213-27.936C544.997-28.440 544.349-28.800 543.917-28.800L540.533-28.800C539.813-28.800 539.165-28.224 539.165-27.432Z"></path><path d="M578.290-1.656C579.730-0.504 583.330 0.720 588.082 0.720C596.218 0.720 600.250-3.384 600.250-8.424C600.250-14.184 596.218-16.488 590.386-18.504C587.938-19.368 587.146-20.088 587.146-20.808C587.146-21.600 587.794-21.816 588.730-21.816C591.538-21.816 594.850-20.160 594.850-20.160C595.426-19.944 596.146-20.160 596.362-20.592L599.026-25.488C599.458-26.208 598.954-26.856 598.306-27.288C596.722-28.296 593.266-29.520 588.730-29.520C580.954-29.520 577.498-25.632 577.498-20.808C577.498-16.344 579.946-13.104 585.562-11.160C589.234-9.864 589.666-8.856 589.666-8.136C589.666-7.272 589.018-6.840 588.298-6.840C585.202-6.840 581.818-8.712 581.818-8.712C581.242-9.000 580.522-8.568 580.306-8.136L577.786-3.168C577.426-2.520 577.786-2.088 578.290-1.656Z"></path></g></g><g transform="translate(-242.95758009916057 -121.43833347455079) scale(2.2233819299498645)" id="logomark"><g fill="#FFFFFF"><path d="M93.139 7.306a1.24 1.24 0 0 1 0 1.754L8.468 94.899c-.483.484-2.145.192-2.629-.292-.485-.485-.655-2.218-.17-2.702L91.385 7.308a1.24 1.24 0 0 1 1.754-.002z"></path><circle cx="81.207" cy="19.263" r="2.325"></circle><circle cx="68.129" cy="32.34" r="2.687"></circle><circle cx="54.249" cy="46.221" r="2.944"></circle><circle cx="38.104" cy="62.366" r="2.944"></circle><ellipse transform="rotate(-45.001 23.568 76.906)" cx="23.567" cy="76.903" rx="5.028" ry="3.928"></ellipse><ellipse transform="rotate(-45.001 12.716 87.752)" cx="12.717" cy="87.751" rx="4.236" ry="3.308"></ellipse><path d="M9.722 90.746c1.292 1.292.998 3.681-.656 5.336-1.654 1.653-2.582.485-3.874-.805-1.292-1.292-2.458-2.219-.804-3.873 1.655-1.653 4.044-1.948 5.334-.658z"></path></g></g></svg>